# xmcd
#
# Track frame offsets: 
#        150
#        16527
#        29360
#        58367
#        69810
#        78635
#        91682
#        105765
#        120792
#        136042
#        146060
#        159855
#        178825
#        192332
#        202155
#        215930
#
# Disc length: 3110 seconds
#
# Revision: 4
# Processed by: cddbd v1.5.2PL0 Copyright (c) Steve Scherf et al.
# Submitted via: ExactAudioCopy v1.0b3
#
DISCID=d20c2410
DTITLE=Ray Charles - The Very Best Of Ray Charles
DYEAR=2000
DGENRE=Blues
TTITLE0=I've Got A Woman
TTITLE1=A Fool For You
TTITLE2=Drown In My Own Tears   
TTITLE3=Hallelujah I Love Her So
TTITLE4=(Night Time Is) The Right Time
TTITLE5=What'd I Say (Parts I and II)
TTITLE6=Sticks And Stones  
TTITLE7=Georgia On My Mind   
TTITLE8=One Mint Julep
TTITLE9=Hit The Road Jack   
TTITLE10=Unchain My Heart
TTITLE11=I Can't Stop Loving You
TTITLE12=You Are My Sunshine
TTITLE13=Busted
TTITLE14=Let's Go Get Stoned
TTITLE15=Seven Spanish Angels - With Willie Nelson
EXTD=YEAR: 2000
EXTT0=
EXTT1=
EXTT2=
EXTT3=
EXTT4=
EXTT5=
EXTT6=
EXTT7=
EXTT8=
EXTT9=
EXTT10=
EXTT11=
EXTT12=
EXTT13=
EXTT14=
EXTT15=
PLAYORDER=
